<svg id="visual" viewBox="0 0 900 100" width="900" height="100" xmlns="http://www.w3.org/2000/svg" xmlns:xlink="http://www.w3.org/1999/xlink" version="1.1"><rect x="0" y="0" width="900" height="100" fill="#031022"></rect><path d="M0 27L18.8 27C37.7 27 75.3 27 112.8 27.8C150.3 28.7 187.7 30.3 225.2 32.2C262.7 34 300.3 36 337.8 36.3C375.3 36.7 412.7 35.3 450.2 34.3C487.7 33.3 525.3 32.7 562.8 32.7C600.3 32.7 637.7 33.3 675.2 32.5C712.7 31.7 750.3 29.3 787.8 28C825.3 26.7 862.7 26.3 881.3 26.2L900 26L900 101L881.3 101C862.7 101 825.3 101 787.8 101C750.3 101 712.7 101 675.2 101C637.7 101 600.3 101 562.8 101C525.3 101 487.7 101 450.2 101C412.7 101 375.3 101 337.8 101C300.3 101 262.7 101 225.2 101C187.7 101 150.3 101 112.8 101C75.3 101 37.7 101 18.8 101L0 101Z" fill="#f3be7c"></path><path d="M0 33L18.8 36.8C37.7 40.7 75.3 48.3 112.8 51.2C150.3 54 187.7 52 225.2 49.5C262.7 47 300.3 44 337.8 43.2C375.3 42.3 412.7 43.7 450.2 45.5C487.7 47.3 525.3 49.7 562.8 50.7C600.3 51.7 637.7 51.3 675.2 50.7C712.7 50 750.3 49 787.8 45.8C825.3 42.7 862.7 37.3 881.3 34.7L900 32L900 101L881.3 101C862.7 101 825.3 101 787.8 101C750.3 101 712.7 101 675.2 101C637.7 101 600.3 101 562.8 101C525.3 101 487.7 101 450.2 101C412.7 101 375.3 101 337.8 101C300.3 101 262.7 101 225.2 101C187.7 101 150.3 101 112.8 101C75.3 101 37.7 101 18.8 101L0 101Z" fill="#eeaf64"></path><path d="M0 69L18.8 65.8C37.7 62.7 75.3 56.3 112.8 52.3C150.3 48.3 187.7 46.7 225.2 49C262.7 51.3 300.3 57.7 337.8 58.3C375.3 59 412.7 54 450.2 54.5C487.7 55 525.3 61 562.8 62.2C600.3 63.3 637.7 59.7 675.2 57.3C712.7 55 750.3 54 787.8 54.5C825.3 55 862.7 57 881.3 58L900 59L900 101L881.3 101C862.7 101 825.3 101 787.8 101C750.3 101 712.7 101 675.2 101C637.7 101 600.3 101 562.8 101C525.3 101 487.7 101 450.2 101C412.7 101 375.3 101 337.8 101C300.3 101 262.7 101 225.2 101C187.7 101 150.3 101 112.8 101C75.3 101 37.7 101 18.8 101L0 101Z" fill="#e8a04c"></path><path d="M0 62L18.8 63C37.7 64 75.3 66 112.8 66.7C150.3 67.3 187.7 66.7 225.2 68.3C262.7 70 300.3 74 337.8 75C375.3 76 412.7 74 450.2 73.2C487.7 72.3 525.3 72.7 562.8 73.3C600.3 74 637.7 75 675.2 74.8C712.7 74.7 750.3 73.3 787.8 73.3C825.3 73.3 862.7 74.7 881.3 75.3L900 76L900 101L881.3 101C862.7 101 825.3 101 787.8 101C750.3 101 712.7 101 675.2 101C637.7 101 600.3 101 562.8 101C525.3 101 487.7 101 450.2 101C412.7 101 375.3 101 337.8 101C300.3 101 262.7 101 225.2 101C187.7 101 150.3 101 112.8 101C75.3 101 37.7 101 18.8 101L0 101Z" fill="#e29133"></path><path d="M0 80L18.8 80C37.7 80 75.3 80 112.8 81.2C150.3 82.3 187.7 84.7 225.2 85.2C262.7 85.7 300.3 84.3 337.8 82.7C375.3 81 412.7 79 450.2 80.2C487.7 81.3 525.3 85.7 562.8 85.5C600.3 85.3 637.7 80.7 675.2 79.5C712.7 78.3 750.3 80.7 787.8 80.8C825.3 81 862.7 79 881.3 78L900 77L900 101L881.3 101C862.7 101 825.3 101 787.8 101C750.3 101 712.7 101 675.2 101C637.7 101 600.3 101 562.8 101C525.3 101 487.7 101 450.2 101C412.7 101 375.3 101 337.8 101C300.3 101 262.7 101 225.2 101C187.7 101 150.3 101 112.8 101C75.3 101 37.7 101 18.8 101L0 101Z" fill="#dc8213"></path></svg>