<svg id="visual" viewBox="0 0 900 100" width="900" height="100" xmlns="http://www.w3.org/2000/svg" xmlns:xlink="http://www.w3.org/1999/xlink" version="1.1"><rect x="0" y="0" width="900" height="100" fill="#020c17"></rect><path d="M0 65L16.7 59.8C33.3 54.7 66.7 44.3 100 38.5C133.3 32.7 166.7 31.3 200 34.5C233.3 37.7 266.7 45.3 300 52.2C333.3 59 366.7 65 400 68.3C433.3 71.7 466.7 72.3 500 70.3C533.3 68.3 566.7 63.7 600 63.5C633.3 63.3 666.7 67.7 700 64.7C733.3 61.7 766.7 51.3 800 41.7C833.3 32 866.7 23 883.3 18.5L900 14L900 0L883.3 0C866.7 0 833.3 0 800 0C766.7 0 733.3 0 700 0C666.7 0 633.3 0 600 0C566.7 0 533.3 0 500 0C466.7 0 433.3 0 400 0C366.7 0 333.3 0 300 0C266.7 0 233.3 0 200 0C166.7 0 133.3 0 100 0C66.7 0 33.3 0 16.7 0L0 0Z" fill="#031022" stroke-linecap="round" stroke-linejoin="miter"></path></svg>