<svg id="visual" viewBox="0 0 900 200" width="900" height="200" xmlns="http://www.w3.org/2000/svg" xmlns:xlink="http://www.w3.org/1999/xlink" version="1.1"><rect x="0" y="0" width="900" height="200" fill="#c3dafa"></rect><path d="M0 90L21.5 87.7C43 85.3 86 80.7 128.8 81.2C171.7 81.7 214.3 87.3 257.2 83.5C300 79.7 343 66.3 385.8 64.2C428.7 62 471.3 71 514.2 71.3C557 71.7 600 63.3 642.8 60.7C685.7 58 728.3 61 771.2 60.5C814 60 857 56 878.5 54L900 52L900 201L878.5 201C857 201 814 201 771.2 201C728.3 201 685.7 201 642.8 201C600 201 557 201 514.2 201C471.3 201 428.7 201 385.8 201C343 201 300 201 257.2 201C214.3 201 171.7 201 128.8 201C86 201 43 201 21.5 201L0 201Z" fill="#d5e6fb"></path><path d="M0 89L21.5 92.8C43 96.7 86 104.3 128.8 109.7C171.7 115 214.3 118 257.2 116.7C300 115.3 343 109.7 385.8 105.7C428.7 101.7 471.3 99.3 514.2 94C557 88.7 600 80.3 642.8 82.3C685.7 84.3 728.3 96.7 771.2 104.3C814 112 857 115 878.5 116.5L900 118L900 201L878.5 201C857 201 814 201 771.2 201C728.3 201 685.7 201 642.8 201C600 201 557 201 514.2 201C471.3 201 428.7 201 385.8 201C343 201 300 201 257.2 201C214.3 201 171.7 201 128.8 201C86 201 43 201 21.5 201L0 201Z" fill="#dfdafc"></path><path d="M0 96L21.5 97.5C43 99 86 102 128.8 104.2C171.7 106.3 214.3 107.7 257.2 110.5C300 113.3 343 117.7 385.8 115.3C428.7 113 471.3 104 514.2 105.3C557 106.7 600 118.3 642.8 122.3C685.7 126.3 728.3 122.7 771.2 120.2C814 117.7 857 116.3 878.5 115.7L900 115L900 201L878.5 201C857 201 814 201 771.2 201C728.3 201 685.7 201 642.8 201C600 201 557 201 514.2 201C471.3 201 428.7 201 385.8 201C343 201 300 201 257.2 201C214.3 201 171.7 201 128.8 201C86 201 43 201 21.5 201L0 201Z" fill="#f4cbee"></path><path d="M0 125L21.5 125C43 125 86 125 128.8 126.3C171.7 127.7 214.3 130.3 257.2 132.5C300 134.7 343 136.3 385.8 136.8C428.7 137.3 471.3 136.7 514.2 139.2C557 141.7 600 147.3 642.8 145.2C685.7 143 728.3 133 771.2 132.2C814 131.3 857 139.7 878.5 143.8L900 148L900 201L878.5 201C857 201 814 201 771.2 201C728.3 201 685.7 201 642.8 201C600 201 557 201 514.2 201C471.3 201 428.7 201 385.8 201C343 201 300 201 257.2 201C214.3 201 171.7 201 128.8 201C86 201 43 201 21.5 201L0 201Z" fill="#ffbece"></path><path d="M0 165L21.5 163.8C43 162.7 86 160.3 128.8 157.8C171.7 155.3 214.3 152.7 257.2 153C300 153.3 343 156.7 385.8 156C428.7 155.3 471.3 150.7 514.2 149.7C557 148.7 600 151.3 642.8 153C685.7 154.7 728.3 155.3 771.2 157C814 158.7 857 161.3 878.5 162.7L900 164L900 201L878.5 201C857 201 814 201 771.2 201C728.3 201 685.7 201 642.8 201C600 201 557 201 514.2 201C471.3 201 428.7 201 385.8 201C343 201 300 201 257.2 201C214.3 201 171.7 201 128.8 201C86 201 43 201 21.5 201L0 201Z" fill="#ffb8a4"></path><path d="M0 167L21.5 169.7C43 172.3 86 177.7 128.8 177.8C171.7 178 214.3 173 257.2 169.7C300 166.3 343 164.7 385.8 167.3C428.7 170 471.3 177 514.2 178C557 179 600 174 642.8 172.8C685.7 171.7 728.3 174.3 771.2 176.7C814 179 857 181 878.5 182L900 183L900 201L878.5 201C857 201 814 201 771.2 201C728.3 201 685.7 201 642.8 201C600 201 557 201 514.2 201C471.3 201 428.7 201 385.8 201C343 201 300 201 257.2 201C214.3 201 171.7 201 128.8 201C86 201 43 201 21.5 201L0 201Z" fill="#f3be7c"></path></svg>