<svg id="visual" viewBox="0 0 900 100" width="900" height="100" xmlns="http://www.w3.org/2000/svg" xmlns:xlink="http://www.w3.org/1999/xlink" version="1.1"><rect x="0" y="0" width="900" height="100" fill="#d5e6fb"></rect><path d="M0 27L16.7 29.2C33.3 31.3 66.7 35.7 100 41.5C133.3 47.3 166.7 54.7 200 51C233.3 47.3 266.7 32.7 300 29.8C333.3 27 366.7 36 400 47.5C433.3 59 466.7 73 500 74.2C533.3 75.3 566.7 63.7 600 53.5C633.3 43.3 666.7 34.7 700 32.8C733.3 31 766.7 36 800 33.3C833.3 30.7 866.7 20.3 883.3 15.2L900 10L900 101L883.3 101C866.7 101 833.3 101 800 101C766.7 101 733.3 101 700 101C666.7 101 633.3 101 600 101C566.7 101 533.3 101 500 101C466.7 101 433.3 101 400 101C366.7 101 333.3 101 300 101C266.7 101 233.3 101 200 101C166.7 101 133.3 101 100 101C66.7 101 33.3 101 16.7 101L0 101Z" fill="#c3dafa" stroke-linecap="round" stroke-linejoin="miter"></path></svg>