<svg id="visual" viewBox="0 0 900 100" width="900" height="100" xmlns="http://www.w3.org/2000/svg" xmlns:xlink="http://www.w3.org/1999/xlink" version="1.1"><rect x="0" y="0" width="900" height="100" fill="#020c17"></rect><path d="M0 33L16.7 38.2C33.3 43.3 66.7 53.7 100 59.5C133.3 65.3 166.7 66.7 200 63.5C233.3 60.3 266.7 52.7 300 45.8C333.3 39 366.7 33 400 29.7C433.3 26.3 466.7 25.7 500 27.7C533.3 29.7 566.7 34.3 600 34.5C633.3 34.7 666.7 30.3 700 33.3C733.3 36.3 766.7 46.7 800 56.3C833.3 66 866.7 75 883.3 79.5L900 84L900 101L883.3 101C866.7 101 833.3 101 800 101C766.7 101 733.3 101 700 101C666.7 101 633.3 101 600 101C566.7 101 533.3 101 500 101C466.7 101 433.3 101 400 101C366.7 101 333.3 101 300 101C266.7 101 233.3 101 200 101C166.7 101 133.3 101 100 101C66.7 101 33.3 101 16.7 101L0 101Z" fill="#031022" stroke-linecap="round" stroke-linejoin="miter"></path></svg>