<svg id="visual" width="900" height="100" xmlns="http://www.w3.org/2000/svg" version="1.1"><path fill="#031022" d="M0 0h900v100H0z"/><path d="M0 27h18.8c18.9 0 56.5 0 94 .8 37.5.9 74.9 2.5 112.4 4.4 37.5 1.8 75.1 3.8 112.6 4.1 37.5.4 74.9-1 112.4-2s75.1-1.6 112.6-1.6 74.9.6 112.4-.2 75.1-3.2 112.6-4.5c37.5-1.3 74.9-1.7 93.5-1.8L900 26v75H0Z" fill="#f3be7c"/><path d="m0 33 18.8 3.8c18.9 3.9 56.5 11.5 94 14.4 37.5 2.8 74.9.8 112.4-1.7s75.1-5.5 112.6-6.3c37.5-.9 74.9.5 112.4 2.3 37.5 1.8 75.1 4.2 112.6 5.2s74.9.6 112.4 0c37.5-.7 75.1-1.7 112.6-4.9 37.5-3.1 74.9-8.5 93.5-11.1L900 32v69H0Z" fill="#eeaf64"/><path d="m0 69 18.8-3.2c18.9-3.1 56.5-9.5 94-13.5s74.9-5.6 112.4-3.3 75.1 8.7 112.6 9.3c37.5.7 74.9-4.3 112.4-3.8s75.1 6.5 112.6 7.7c37.5 1.1 74.9-2.5 112.4-4.9 37.5-2.3 75.1-3.3 112.6-2.8s74.9 2.5 93.5 3.5l18.7 1v42H0Z" fill="#e8a04c"/><path d="m0 62 18.8 1c18.9 1 56.5 3 94 3.7 37.5.6 74.9 0 112.4 1.6C262.7 70 300.3 74 337.8 75s74.9-1 112.4-1.8c37.5-.9 75.1-.5 112.6.1 37.5.7 74.9 1.7 112.4 1.5 37.5-.1 75.1-1.5 112.6-1.5s74.9 1.4 93.5 2l18.7.7v25H0Z" fill="#e29133"/><path d="M0 80h18.8c18.9 0 56.5 0 94 1.2 37.5 1.1 74.9 3.5 112.4 4s75.1-.9 112.6-2.5c37.5-1.7 74.9-3.7 112.4-2.5 37.5 1.1 75.1 5.5 112.6 5.3 37.5-.2 74.9-4.8 112.4-6 37.5-1.2 75.1 1.2 112.6 1.3 37.5.2 74.9-1.8 93.5-2.8l18.7-1v24H0Z" fill="#dc8213"/></svg>