<svg id="visual" viewBox="0 0 900 100" width="900" height="100" xmlns="http://www.w3.org/2000/svg" xmlns:xlink="http://www.w3.org/1999/xlink" version="1.1"><rect x="0" y="0" width="900" height="100" fill="#d5e6fb"></rect><path d="M0 16L18.8 27.2C37.7 38.3 75.3 60.7 112.8 66.7C150.3 72.7 187.7 62.3 225.2 58.3C262.7 54.3 300.3 56.7 337.8 59.8C375.3 63 412.7 67 450.2 66.7C487.7 66.3 525.3 61.7 562.8 53.8C600.3 46 637.7 35 675.2 27.3C712.7 19.7 750.3 15.3 787.8 20.7C825.3 26 862.7 41 881.3 48.5L900 56L900 0L881.3 0C862.7 0 825.3 0 787.8 0C750.3 0 712.7 0 675.2 0C637.7 0 600.3 0 562.8 0C525.3 0 487.7 0 450.2 0C412.7 0 375.3 0 337.8 0C300.3 0 262.7 0 225.2 0C187.7 0 150.3 0 112.8 0C75.3 0 37.7 0 18.8 0L0 0Z" fill="#c3dafa" stroke-linecap="round" stroke-linejoin="miter"></path></svg>