<svg id="visual" width="900" height="200" xmlns="http://www.w3.org/2000/svg" version="1.1"><path fill="#c3dafa" d="M0 0h900v200H0z"/><path d="m0 90 21.5-2.3c21.5-2.4 64.5-7 107.3-6.5 42.9.5 85.5 6.1 128.4 2.3C300 79.7 343 66.3 385.8 64.2c42.9-2.2 85.5 6.8 128.4 7.1 42.8.4 85.8-8 128.6-10.6 42.9-2.7 85.5.3 128.4-.2C814 60 857 56 878.5 54l21.5-2v149H0Z" fill="#d5e6fb"/><path d="m0 89 21.5 3.8C43 96.7 86 104.3 128.8 109.7c42.9 5.3 85.5 8.3 128.4 7 42.8-1.4 85.8-7 128.6-11 42.9-4 85.5-6.4 128.4-11.7C557 88.7 600 80.3 642.8 82.3c42.9 2 85.5 14.4 128.4 22C814 112 857 115 878.5 116.5L900 118v83H0Z" fill="#dfdafc"/><path d="m0 96 21.5 1.5C43 99 86 102 128.8 104.2c42.9 2.1 85.5 3.5 128.4 6.3 42.8 2.8 85.8 7.2 128.6 4.8 42.9-2.3 85.5-11.3 128.4-10 42.8 1.4 85.8 13 128.6 17 42.9 4 85.5.4 128.4-2.1 42.8-2.5 85.8-3.9 107.3-4.5l21.5-.7v86H0Z" fill="#f4cbee"/><path d="M0 125h21.5c21.5 0 64.5 0 107.3 1.3 42.9 1.4 85.5 4 128.4 6.2 42.8 2.2 85.8 3.8 128.6 4.3 42.9.5 85.5-.1 128.4 2.4 42.8 2.5 85.8 8.1 128.6 6 42.9-2.2 85.5-12.2 128.4-13 42.8-.9 85.8 7.5 107.3 11.6L900 148v53H0Z" fill="#ffbece"/><path d="m0 165 21.5-1.2c21.5-1.1 64.5-3.5 107.3-6 42.9-2.5 85.5-5.1 128.4-4.8 42.8.3 85.8 3.7 128.6 3 42.9-.7 85.5-5.3 128.4-6.3 42.8-1 85.8 1.6 128.6 3.3 42.9 1.7 85.5 2.3 128.4 4 42.8 1.7 85.8 4.3 107.3 5.7L900 164v37H0Z" fill="#ffb8a4"/><path d="m0 167 21.5 2.7c21.5 2.6 64.5 8 107.3 8.1 42.9.2 85.5-4.8 128.4-8.1 42.8-3.4 85.8-5 128.6-2.4 42.9 2.7 85.5 9.7 128.4 10.7 42.8 1 85.8-4 128.6-5.2 42.9-1.1 85.5 1.5 128.4 3.9C814 179 857 181 878.5 182l21.5 1v18H0Z" fill="#f3be7c"/></svg>