<svg id="visual" viewBox="0 0 900 200" width="900" height="200" xmlns="http://www.w3.org/2000/svg" xmlns:xlink="http://www.w3.org/1999/xlink" version="1.1"><rect x="0" y="0" width="900" height="200" fill="#d5edfb"></rect><path d="M0 173L25 159C50 145 100 117 150 115C200 113 250 137 300 136.7C350 136.3 400 111.7 450 94.3C500 77 550 67 600 77.8C650 88.7 700 120.3 750 135.3C800 150.3 850 148.7 875 147.8L900 147L900 201L875 201C850 201 800 201 750 201C700 201 650 201 600 201C550 201 500 201 450 201C400 201 350 201 300 201C250 201 200 201 150 201C100 201 50 201 25 201L0 201Z" fill="#c3dafa" stroke-linecap="round" stroke-linejoin="miter"></path></svg>